<svg xmlns="http://www.w3.org/2000/svg" viewBox="0 0 800 800" preserveAspectRatio="xMinYMin meet" version="1.1">
<g fill="none" stroke="black" stroke-linecap="round" stroke-linejoin="round" stroke-width="1.4065">
<g transform="translate(87.52,126.9799) scale(2.133) translate(-140,-72.1333)">
<path id="0" d="M208 169.1333 C208 169.1333 207.0469 154.3207 211 147.1333 C215.7554 138.4872 220.532 134.763 230 129.1333 C236.4958 125.271 242.3844 127.3796 248 125.1333 C249.0314 124.7208 248.9278 122.0268 250 121.1333 C250.9717 120.3236 251.9932 120.3468 254 120.1333 C275.2222 117.8756 277.5003 115.7912 297 116.1333 C303.399 116.2456 304.0515 119.5892 311 121.1333 C317.08 122.4844 320.1313 119.8121 324 122.1333 C331.7375 126.7758 332.3105 132.1149 341 139.1333 C344.4584 141.9267 347.5168 140.3888 350 143.1333 C355.3267 149.0207 356.6877 151.4385 360 160.1333 C364.3431 171.5341 364.4479 172.7161 366 185.1333 C367.8761 200.1425 369.462 202.182 367 216.1333 C363.8614 233.9186 363.7261 239.9206 354 253.1333 C340.5407 271.4176 332.8709 275.5527 314 288.1333 C308.3387 291.9075 305.4261 290.6819 297 291.1333 C277.8505 292.1592 274.8228 294.4979 258 291.1333 C245.6633 288.666 242.1703 285.8298 232 278.1333 C225.657 273.3332 221 263.1333 221 263.1333 "/>
<path id="1" d="M209 159.1333 C209 159.1333 206.5063 163.1843 206 167.1333 C204.1126 181.8547 206.1558 183.761 204 198.1333 C203.3388 202.5415 200.5919 202.8419 200 207.1333 C198.7606 216.1191 198.3667 218.0336 200 227.1333 C201.6542 236.3498 202.4613 237.4882 207 246.1333 C212.6746 256.9422 221 267.1333 221 267.1333 "/>
<path id="2" d="M285 115.1333 C285 115.1333 285.1484 101.0798 286 99.1333 C286.136 98.8225 291.8836 98.8618 292 99.1333 C292.6336 100.6118 292 113.1333 292 113.1333 "/>
<path id="3" d="M280 99.1333 C280 99.1333 292.551 99.2048 295 98.1333 C295.5751 97.8817 296 95.0504 296 92.1333 C296 85.3268 296.9074 81.0678 295 78.1333 C293.2032 75.3691 288.6045 74.235 283 72.1333 C281.4268 71.5434 280.1657 71.5505 279 72.1333 C277.2515 73.0076 275.7012 74.1298 275 76.1333 C272.7859 82.4592 271.2004 87.5356 272 92.1333 C272.4245 94.5743 275.9588 97.4958 279 99.1333 C280.6944 100.0457 285 99.1333 285 99.1333 "/>
<path id="4" d="M312 112.1333 C312 112.1333 323.7622 111.3371 330 114.1333 C335.2589 116.4908 339.503 125.1333 341 125.1333 C342.6331 125.1333 351.1513 118.9092 353 114.1333 C355.3633 108.028 354.8679 99.5295 353 94.1333 C352.1487 91.6739 347.957 88.8943 344 88.1333 C337.4499 86.8737 332.9551 86.7938 327 89.1333 C321.8886 91.1414 318.3986 94.3361 316 99.1333 C313.3693 104.3948 314 115.1333 314 115.1333 "/>
<path id="5" d="M218 126.1333 C218 126.1333 221.1483 121.5406 225 119.1333 C232.4494 114.4774 233.9049 113.3665 242 111.1333 C247.0576 109.7381 253.5723 111.8106 254 111.1333 C255.0723 109.4356 256.1805 96.0582 254 92.1333 C252.1256 88.7593 246.0865 85.905 239 84.1333 C231.9135 82.3617 225.4806 81.8958 222 84.1333 C217.3787 87.1041 213.2557 94.0127 211 102.1333 C209.1014 108.9684 211.135 117.909 212 120.1333 C212.1098 120.4156 217.4 119.8333 218 120.1333 C218.15 120.2083 218 123.1333 218 123.1333 "/>
<path id="6" d="M243 288.1333 C243 288.1333 228.9897 303.6014 221 314.1333 C220.4385 314.8735 220.934 317.1223 221 317.1333 C224.189 317.6648 237.6374 320.7763 245 318.1333 C251.3484 315.8544 255.773 310.0021 260 303.1333 C262.0263 299.8407 261 292.1333 261 292.1333 "/>
<path id="7" d="M298 294.1333 C298 294.1333 298.754 299.8456 301 304.1333 C303.9484 309.7621 304.8814 312.7572 309 315.1333 C314.8301 318.4968 321.9939 320.3014 327 319.1333 C331.2728 318.1363 339.1202 309.1351 339 308.1333 C338.8013 306.4777 331.4001 299.7715 324 294.1333 C321.8308 292.4806 319.4864 293.434 318 292.1333 C316.7773 291.0635 316 287.1333 316 287.1333 "/>
<path id="8" d="M282 206.1333 C282 206.1333 280.0001 201.1333 280 201.1333 C280 201.1333 281 206.1333 281 206.1333 "/>
<path id="9" d="M285 209.1333 L332 213.1333 "/>
<path id="10" d="M284 143.1333 L282 207.1333 "/>
<path id="11" d="M211 200.1333 L214 200.1333 "/>
<path id="12" d="M286 118.1333 L285 128.1333 "/>
<path id="13" d="M358 216.1333 L364 217.1333 "/>
<path id="14" d="M281 281.1333 L281 291.1333 "/>
<path id="15" d="M216 199.1333 L206 200.1333 "/>
<path id="16" d="M191 318.1333 C191 318.1333 204.8872 316.9931 218 318.1333 C227.3965 318.9504 227.7688 321.7914 237 322.1333 C253.8375 322.7569 267.1431 320.6884 272 320.1333 C272.0315 320.1297 271.9906 318.1337 272 318.1333 C278.6156 317.8837 305.7188 317.4322 325 318.1333 C325.754 318.1608 326.3054 320.1333 327 320.1333 C339.5019 320.1333 349.002 317.7834 363 318.1333 C364.5867 318.173 365.3166 321.038 367 321.1333 C386.7816 322.253 393.563 318.7537 416 321.1333 C424.1242 321.995 433 328.1333 433 328.1333 "/>
<path id="17" d="M195 318.1333 L140 319.1333 "/>
</g>
</g>
</svg>